<mxfile host="Electron" agent="Mozilla/5.0 (X11; Linux x86_64) AppleWebKit/537.36 (KHTML, like Gecko) draw.io/28.0.6 Chrome/138.0.7204.100 Electron/37.2.3 Safari/537.36" version="28.0.6">
  <diagram name="Page-1" id="D4C9za8_FSPfOKwEEYRF">
    <mxGraphModel dx="1532" dy="1142" grid="0" gridSize="10" guides="1" tooltips="1" connect="1" arrows="1" fold="1" page="1" pageScale="1" pageWidth="1169" pageHeight="827" math="0" shadow="0">
      <root>
        <mxCell id="0" />
        <mxCell id="1" parent="0" />
        <mxCell id="qqZuVMNc7DKXXxTwnNxb-66" value="" style="rounded=0;whiteSpace=wrap;html=1;fillColor=none;strokeColor=none;movable=0;resizable=0;rotatable=0;deletable=0;editable=0;locked=1;connectable=0;" parent="1" vertex="1">
          <mxGeometry width="1160" height="820" as="geometry" />
        </mxCell>
        <mxCell id="00ZZlt3gnVTdoSMxvHN4-1" value="" style="ellipse;fillColor=strokeColor;html=1;" parent="1" vertex="1">
          <mxGeometry x="550" y="200" width="20" height="20" as="geometry" />
        </mxCell>
        <mxCell id="qqZuVMNc7DKXXxTwnNxb-11" value="" style="endArrow=open;endFill=1;endSize=12;html=1;rounded=0;exitX=0.5;exitY=1;exitDx=0;exitDy=0;entryX=0.669;entryY=0.05;entryDx=0;entryDy=0;entryPerimeter=0;" parent="1" source="00ZZlt3gnVTdoSMxvHN4-1" target="qqZuVMNc7DKXXxTwnNxb-40" edge="1">
          <mxGeometry width="160" relative="1" as="geometry">
            <mxPoint x="450" y="280" as="sourcePoint" />
            <mxPoint x="570" y="260" as="targetPoint" />
          </mxGeometry>
        </mxCell>
        <mxCell id="qqZuVMNc7DKXXxTwnNxb-12" value="" style="endArrow=open;endFill=1;endSize=12;html=1;rounded=0;strokeColor=#99004D;" parent="1" edge="1">
          <mxGeometry width="160" relative="1" as="geometry">
            <mxPoint x="540" y="300" as="sourcePoint" />
            <mxPoint x="540" y="380" as="targetPoint" />
          </mxGeometry>
        </mxCell>
        <mxCell id="qqZuVMNc7DKXXxTwnNxb-14" value="&lt;font color=&quot;#99004d&quot;&gt;condition&lt;/font&gt;&lt;div&gt;&lt;font color=&quot;#99004d&quot;&gt;&quot;Configuration Completed&quot;&lt;/font&gt;&lt;/div&gt;" style="edgeLabel;html=1;align=center;verticalAlign=middle;resizable=0;points=[];" parent="qqZuVMNc7DKXXxTwnNxb-12" vertex="1" connectable="0">
          <mxGeometry x="-0.0542" relative="1" as="geometry">
            <mxPoint y="2" as="offset" />
          </mxGeometry>
        </mxCell>
        <mxCell id="qqZuVMNc7DKXXxTwnNxb-18" value="" style="endArrow=open;endFill=1;endSize=12;html=1;rounded=0;" parent="1" edge="1">
          <mxGeometry width="160" relative="1" as="geometry">
            <mxPoint x="539.75" y="440.00000000000006" as="sourcePoint" />
            <mxPoint x="540" y="520" as="targetPoint" />
          </mxGeometry>
        </mxCell>
        <mxCell id="qqZuVMNc7DKXXxTwnNxb-19" value="&quot;Enable&quot;" style="edgeLabel;html=1;align=center;verticalAlign=middle;resizable=0;points=[];" parent="qqZuVMNc7DKXXxTwnNxb-18" vertex="1" connectable="0">
          <mxGeometry x="-0.0542" relative="1" as="geometry">
            <mxPoint y="2" as="offset" />
          </mxGeometry>
        </mxCell>
        <mxCell id="qqZuVMNc7DKXXxTwnNxb-36" value="RESET_UNDERWAY" style="ellipse;whiteSpace=wrap;html=1;shadow=0;" parent="1" vertex="1">
          <mxGeometry x="800" y="340" width="160" height="80" as="geometry" />
        </mxCell>
        <mxCell id="qqZuVMNc7DKXXxTwnNxb-40" value="INIT" style="ellipse;whiteSpace=wrap;html=1;" parent="1" vertex="1">
          <mxGeometry x="480" y="260" width="120" height="40" as="geometry" />
        </mxCell>
        <mxCell id="qqZuVMNc7DKXXxTwnNxb-45" value="" style="curved=1;endArrow=classic;html=1;rounded=0;exitX=0.95;exitY=0.283;exitDx=0;exitDy=0;exitPerimeter=0;entryX=0;entryY=0;entryDx=0;entryDy=0;" parent="1" source="qqZuVMNc7DKXXxTwnNxb-40" target="qqZuVMNc7DKXXxTwnNxb-36" edge="1">
          <mxGeometry width="50" height="50" relative="1" as="geometry">
            <mxPoint x="600" y="270" as="sourcePoint" />
            <mxPoint x="960" y="210" as="targetPoint" />
            <Array as="points">
              <mxPoint x="730" y="250" />
            </Array>
          </mxGeometry>
        </mxCell>
        <mxCell id="qqZuVMNc7DKXXxTwnNxb-57" value="&quot;Reset&quot;" style="edgeLabel;html=1;align=center;verticalAlign=middle;resizable=0;points=[];" parent="qqZuVMNc7DKXXxTwnNxb-45" vertex="1" connectable="0">
          <mxGeometry x="0.1181" y="-29" relative="1" as="geometry">
            <mxPoint x="10" y="-2" as="offset" />
          </mxGeometry>
        </mxCell>
        <mxCell id="qqZuVMNc7DKXXxTwnNxb-46" value="" style="curved=1;endArrow=none;html=1;rounded=0;startArrow=classic;startFill=1;endFill=0;exitX=0.933;exitY=0.75;exitDx=0;exitDy=0;exitPerimeter=0;strokeColor=#0066CC;" parent="1" source="qqZuVMNc7DKXXxTwnNxb-40" edge="1">
          <mxGeometry width="50" height="50" relative="1" as="geometry">
            <mxPoint x="540" y="330" as="sourcePoint" />
            <mxPoint x="810" y="360" as="targetPoint" />
            <Array as="points">
              <mxPoint x="680" y="370" />
            </Array>
          </mxGeometry>
        </mxCell>
        <mxCell id="qqZuVMNc7DKXXxTwnNxb-58" value="&lt;font color=&quot;#0066cc&quot;&gt;&quot;Reset&quot;&lt;/font&gt;&lt;div&gt;&lt;font color=&quot;#0066cc&quot;&gt;completed&lt;/font&gt;&lt;/div&gt;" style="edgeLabel;html=1;align=center;verticalAlign=middle;resizable=0;points=[];" parent="qqZuVMNc7DKXXxTwnNxb-46" vertex="1" connectable="0">
          <mxGeometry x="-0.2103" y="15" relative="1" as="geometry">
            <mxPoint as="offset" />
          </mxGeometry>
        </mxCell>
        <mxCell id="qqZuVMNc7DKXXxTwnNxb-47" value="" style="curved=1;endArrow=classic;html=1;rounded=0;exitX=1;exitY=0.5;exitDx=0;exitDy=0;entryX=0;entryY=0.5;entryDx=0;entryDy=0;" parent="1" source="qqZuVMNc7DKXXxTwnNxb-48" target="qqZuVMNc7DKXXxTwnNxb-36" edge="1">
          <mxGeometry width="50" height="50" relative="1" as="geometry">
            <mxPoint x="600" y="350" as="sourcePoint" />
            <mxPoint x="908" y="340" as="targetPoint" />
            <Array as="points">
              <mxPoint x="720" y="420" />
            </Array>
          </mxGeometry>
        </mxCell>
        <mxCell id="qqZuVMNc7DKXXxTwnNxb-69" value="&quot;Reset&quot;" style="edgeLabel;html=1;align=center;verticalAlign=middle;resizable=0;points=[];" parent="qqZuVMNc7DKXXxTwnNxb-47" vertex="1" connectable="0">
          <mxGeometry x="-0.0417" y="7" relative="1" as="geometry">
            <mxPoint as="offset" />
          </mxGeometry>
        </mxCell>
        <mxCell id="qqZuVMNc7DKXXxTwnNxb-48" value="CONFIGURED" style="ellipse;whiteSpace=wrap;html=1;" parent="1" vertex="1">
          <mxGeometry x="480" y="380" width="120" height="60" as="geometry" />
        </mxCell>
        <mxCell id="qqZuVMNc7DKXXxTwnNxb-49" value="DISABLE_UNDERWAY" style="ellipse;whiteSpace=wrap;html=1;" parent="1" vertex="1">
          <mxGeometry x="200" y="440" width="160" height="80" as="geometry" />
        </mxCell>
        <mxCell id="qqZuVMNc7DKXXxTwnNxb-51" value="ENABLED" style="ellipse;whiteSpace=wrap;html=1;" parent="1" vertex="1">
          <mxGeometry x="480" y="520.5" width="120" height="60" as="geometry" />
        </mxCell>
        <mxCell id="qqZuVMNc7DKXXxTwnNxb-52" value="" style="curved=1;endArrow=classic;html=1;rounded=0;exitX=1;exitY=0.5;exitDx=0;exitDy=0;entryX=0;entryY=1;entryDx=0;entryDy=0;" parent="1" source="qqZuVMNc7DKXXxTwnNxb-51" target="qqZuVMNc7DKXXxTwnNxb-36" edge="1">
          <mxGeometry width="50" height="50" relative="1" as="geometry">
            <mxPoint x="590" y="509" as="sourcePoint" />
            <mxPoint x="905" y="420" as="targetPoint" />
            <Array as="points">
              <mxPoint x="740" y="520" />
            </Array>
          </mxGeometry>
        </mxCell>
        <mxCell id="qqZuVMNc7DKXXxTwnNxb-70" value="&quot;Reset&quot;" style="edgeLabel;html=1;align=center;verticalAlign=middle;resizable=0;points=[];" parent="qqZuVMNc7DKXXxTwnNxb-52" vertex="1" connectable="0">
          <mxGeometry x="0.1067" y="20" relative="1" as="geometry">
            <mxPoint as="offset" />
          </mxGeometry>
        </mxCell>
        <mxCell id="qqZuVMNc7DKXXxTwnNxb-54" value="" style="curved=1;endArrow=none;html=1;rounded=0;exitX=0.927;exitY=0.25;exitDx=0;exitDy=0;exitPerimeter=0;startArrow=classic;startFill=1;endFill=0;" parent="1" source="qqZuVMNc7DKXXxTwnNxb-49" target="qqZuVMNc7DKXXxTwnNxb-48" edge="1">
          <mxGeometry width="50" height="50" relative="1" as="geometry">
            <mxPoint x="270" y="390" as="sourcePoint" />
            <mxPoint x="470" y="360" as="targetPoint" />
            <Array as="points">
              <mxPoint x="390" y="410" />
            </Array>
          </mxGeometry>
        </mxCell>
        <mxCell id="qqZuVMNc7DKXXxTwnNxb-72" value="&quot;Disable&quot;" style="edgeLabel;html=1;align=center;verticalAlign=middle;resizable=0;points=[];" parent="qqZuVMNc7DKXXxTwnNxb-54" vertex="1" connectable="0">
          <mxGeometry x="0.1135" y="-16" relative="1" as="geometry">
            <mxPoint as="offset" />
          </mxGeometry>
        </mxCell>
        <mxCell id="qqZuVMNc7DKXXxTwnNxb-55" value="" style="curved=1;endArrow=none;html=1;rounded=0;exitX=0.938;exitY=0.75;exitDx=0;exitDy=0;startArrow=classic;startFill=1;endFill=0;entryX=0;entryY=0.5;entryDx=0;entryDy=0;exitPerimeter=0;" parent="1" source="qqZuVMNc7DKXXxTwnNxb-49" target="qqZuVMNc7DKXXxTwnNxb-51" edge="1">
          <mxGeometry width="50" height="50" relative="1" as="geometry">
            <mxPoint x="327" y="564" as="sourcePoint" />
            <mxPoint x="490" y="506" as="targetPoint" />
            <Array as="points">
              <mxPoint x="400" y="560" />
            </Array>
          </mxGeometry>
        </mxCell>
        <mxCell id="qqZuVMNc7DKXXxTwnNxb-73" value="&quot;Disable&quot;" style="edgeLabel;html=1;align=center;verticalAlign=middle;resizable=0;points=[];" parent="qqZuVMNc7DKXXxTwnNxb-55" vertex="1" connectable="0">
          <mxGeometry x="0.0328" y="8" relative="1" as="geometry">
            <mxPoint as="offset" />
          </mxGeometry>
        </mxCell>
        <mxCell id="qqZuVMNc7DKXXxTwnNxb-61" value="" style="ellipse;html=1;shape=endState;fillColor=strokeColor;" parent="1" vertex="1">
          <mxGeometry x="510" y="200" width="20" height="20" as="geometry" />
        </mxCell>
        <mxCell id="qqZuVMNc7DKXXxTwnNxb-63" value="" style="endArrow=open;endFill=1;endSize=12;html=1;rounded=0;exitX=0.333;exitY=0.033;exitDx=0;exitDy=0;exitPerimeter=0;entryX=0.5;entryY=1;entryDx=0;entryDy=0;" parent="1" source="qqZuVMNc7DKXXxTwnNxb-40" target="qqZuVMNc7DKXXxTwnNxb-61" edge="1">
          <mxGeometry width="160" relative="1" as="geometry">
            <mxPoint x="479.5" y="279.75" as="sourcePoint" />
            <mxPoint x="440" y="279.75" as="targetPoint" />
          </mxGeometry>
        </mxCell>
        <mxCell id="qqZuVMNc7DKXXxTwnNxb-65" value="&lt;font color=&quot;#4d4d4d&quot; style=&quot;font-size: 14px;&quot;&gt;Virtqueue State Diagram&lt;/font&gt;" style="rounded=0;whiteSpace=wrap;html=1;arcSize=32;fillColor=none;shadow=0;glass=0;strokeColor=none;" parent="1" vertex="1">
          <mxGeometry x="320" y="40" width="520" height="40" as="geometry" />
        </mxCell>
        <mxCell id="-vqH-gTSyXBO0U5Me7q9-3" value="" style="curved=1;endArrow=none;html=1;rounded=0;endFill=0;startArrow=classic;startFill=1;strokeColor=#0066CC;entryX=0.5;entryY=0;entryDx=0;entryDy=0;" parent="1" target="qqZuVMNc7DKXXxTwnNxb-49" edge="1">
          <mxGeometry width="50" height="50" relative="1" as="geometry">
            <mxPoint x="480" y="280" as="sourcePoint" />
            <mxPoint x="280" y="460" as="targetPoint" />
            <Array as="points">
              <mxPoint x="300" y="280" />
            </Array>
          </mxGeometry>
        </mxCell>
        <mxCell id="-vqH-gTSyXBO0U5Me7q9-4" value="&lt;font color=&quot;#0066cc&quot;&gt;&quot;Disable&quot;&lt;/font&gt;&lt;div&gt;&lt;font color=&quot;#0066cc&quot;&gt;completed&lt;/font&gt;&lt;/div&gt;" style="edgeLabel;html=1;align=center;verticalAlign=middle;resizable=0;points=[];" parent="-vqH-gTSyXBO0U5Me7q9-3" vertex="1" connectable="0">
          <mxGeometry x="0.1181" y="-29" relative="1" as="geometry">
            <mxPoint x="50" y="53" as="offset" />
          </mxGeometry>
        </mxCell>
        <mxCell id="cMUmZzCXaGzRCMLAyAD4-4" value="&lt;div&gt;&lt;font color=&quot;#4d4d4d&quot;&gt;&lt;span style=&quot;background-color: initial;&quot;&gt;©&amp;nbsp;&lt;/span&gt;Nataliya Korovkina&lt;span style=&quot;background-color: initial;&quot;&gt;&amp;nbsp;2024 – CC BY 4.0&lt;/span&gt;&lt;/font&gt;&lt;/div&gt;&lt;div&gt;&lt;font color=&quot;#4d4d4d&quot;&gt;docs.kernels-abreeze.dev&lt;/font&gt;&lt;/div&gt;" style="rounded=0;whiteSpace=wrap;html=1;fillColor=none;strokeColor=none;shadow=0;arcSize=27;labelBorderColor=none;" parent="1" vertex="1">
          <mxGeometry x="840" y="760" width="280" height="40" as="geometry" />
        </mxCell>
        <mxCell id="cMUmZzCXaGzRCMLAyAD4-5" value="&lt;font color=&quot;#4d4d4d&quot;&gt;VQ01IL1&lt;font style=&quot;font-size: 12px;&quot;&gt;&amp;nbsp;ver 1.0&lt;/font&gt;&lt;/font&gt;&lt;div style=&quot;&quot;&gt;&lt;font color=&quot;#4d4d4d&quot; style=&quot;font-size: 12px;&quot;&gt;Sep-16-2024&lt;/font&gt;&lt;/div&gt;" style="rounded=0;whiteSpace=wrap;html=1;fillColor=none;strokeColor=none;shadow=0;arcSize=27;" parent="1" vertex="1">
          <mxGeometry x="1000" y="40.5" width="120" height="40" as="geometry" />
        </mxCell>
        <mxCell id="cMUmZzCXaGzRCMLAyAD4-6" value="" style="endArrow=none;html=1;rounded=0;entryX=0.965;entryY=0.938;entryDx=0;entryDy=0;entryPerimeter=0;strokeColor=#4D4D4D;" parent="1" edge="1">
          <mxGeometry width="50" height="50" relative="1" as="geometry">
            <mxPoint x="840" y="799.6" as="sourcePoint" />
            <mxPoint x="1119.75" y="799.9999999999999" as="targetPoint" />
          </mxGeometry>
        </mxCell>
        <mxCell id="cMUmZzCXaGzRCMLAyAD4-7" value="" style="endArrow=none;html=1;rounded=0;entryX=0.965;entryY=0.938;entryDx=0;entryDy=0;entryPerimeter=0;strokeColor=#4D4D4D;" parent="1" edge="1">
          <mxGeometry width="50" height="50" relative="1" as="geometry">
            <mxPoint x="840" y="760" as="sourcePoint" />
            <mxPoint x="1120" y="760" as="targetPoint" />
          </mxGeometry>
        </mxCell>
        <mxCell id="cMUmZzCXaGzRCMLAyAD4-8" value="" style="endArrow=none;html=1;rounded=0;entryX=0.93;entryY=0.138;entryDx=0;entryDy=0;entryPerimeter=0;strokeColor=#4D4D4D;" parent="1" edge="1">
          <mxGeometry width="50" height="50" relative="1" as="geometry">
            <mxPoint x="1000" y="40" as="sourcePoint" />
            <mxPoint x="1119.5" y="40.39999999999998" as="targetPoint" />
          </mxGeometry>
        </mxCell>
        <mxCell id="cMUmZzCXaGzRCMLAyAD4-9" value="" style="endArrow=none;html=1;rounded=0;entryX=0.93;entryY=0.138;entryDx=0;entryDy=0;entryPerimeter=0;strokeColor=#4D4D4D;" parent="1" edge="1">
          <mxGeometry width="50" height="50" relative="1" as="geometry">
            <mxPoint x="1000" y="80.1" as="sourcePoint" />
            <mxPoint x="1119.5" y="80.49999999999997" as="targetPoint" />
          </mxGeometry>
        </mxCell>
        <mxCell id="cMUmZzCXaGzRCMLAyAD4-10" value="" style="endArrow=none;html=1;rounded=0;strokeColor=#4D4D4D;" parent="1" edge="1">
          <mxGeometry width="50" height="50" relative="1" as="geometry">
            <mxPoint x="320" y="80" as="sourcePoint" />
            <mxPoint x="840" y="80" as="targetPoint" />
          </mxGeometry>
        </mxCell>
        <mxCell id="cMUmZzCXaGzRCMLAyAD4-11" value="" style="endArrow=none;html=1;rounded=0;strokeColor=#4D4D4D;" parent="1" edge="1">
          <mxGeometry width="50" height="50" relative="1" as="geometry">
            <mxPoint x="320" y="40.5" as="sourcePoint" />
            <mxPoint x="840" y="40.5" as="targetPoint" />
          </mxGeometry>
        </mxCell>
      </root>
    </mxGraphModel>
  </diagram>
</mxfile>
